<mxfile host="app.diagrams.net" agent="Mozilla/5.0 (Windows NT 10.0; Win64; x64) AppleWebKit/537.36 (KHTML, like Gecko) Chrome/131.0.0.0 Safari/537.36" version="24.8.6">
  <diagram name="第 1 页" id="YM_w0v_YzfD_8RYGpQ09">
    <mxGraphModel dx="6434" dy="3656" grid="1" gridSize="10" guides="1" tooltips="1" connect="1" arrows="1" fold="1" page="1" pageScale="1" pageWidth="827" pageHeight="1169" math="0" shadow="0">
      <root>
        <mxCell id="0" />
        <mxCell id="1" parent="0" />
        <mxCell id="HZn5qNQIZKqaOpFyqT_2-1" value="VeSync-cloud" style="points=[[0,0],[0.25,0],[0.5,0],[0.75,0],[1,0],[1,0.25],[1,0.5],[1,0.75],[1,1],[0.75,1],[0.5,1],[0.25,1],[0,1],[0,0.75],[0,0.5],[0,0.25]];outlineConnect=0;gradientColor=none;html=1;whiteSpace=wrap;fontSize=12;fontStyle=0;container=1;pointerEvents=0;collapsible=0;recursiveResize=0;shape=mxgraph.aws4.group;grIcon=mxgraph.aws4.group_account;strokeColor=#CD2264;fillColor=none;verticalAlign=top;align=left;spacingLeft=30;fontColor=#CD2264;dashed=0;" vertex="1" parent="1">
          <mxGeometry x="-982" y="-820" width="2982" height="1210" as="geometry" />
        </mxCell>
        <mxCell id="HZn5qNQIZKqaOpFyqT_2-2" value="&lt;font face=&quot;Helvetica&quot;&gt;vesync-prd-iot&lt;/font&gt;" style="points=[[0,0],[0.25,0],[0.5,0],[0.75,0],[1,0],[1,0.25],[1,0.5],[1,0.75],[1,1],[0.75,1],[0.5,1],[0.25,1],[0,1],[0,0.75],[0,0.5],[0,0.25]];outlineConnect=0;gradientColor=none;html=1;whiteSpace=wrap;fontSize=12;fontStyle=0;container=1;pointerEvents=0;collapsible=0;recursiveResize=0;shape=mxgraph.aws4.group;grIcon=mxgraph.aws4.group_vpc2;strokeColor=#8C4FFF;fillColor=none;verticalAlign=top;align=left;spacingLeft=30;fontColor=#AAB7B8;dashed=0;" vertex="1" parent="HZn5qNQIZKqaOpFyqT_2-1">
          <mxGeometry x="1042" y="40" width="1778" height="300" as="geometry" />
        </mxCell>
        <mxCell id="HZn5qNQIZKqaOpFyqT_2-3" value="&lt;font style=&quot;font-size: 14px;&quot;&gt;prd-iot-1b-nonat&lt;/font&gt;" style="sketch=0;outlineConnect=0;gradientColor=none;html=1;whiteSpace=wrap;fontSize=12;fontStyle=0;shape=mxgraph.aws4.group;grIcon=mxgraph.aws4.group_subnet;strokeColor=#879196;fillColor=none;verticalAlign=top;align=left;spacingLeft=30;fontColor=#879196;dashed=0;" vertex="1" parent="HZn5qNQIZKqaOpFyqT_2-2">
          <mxGeometry x="961" y="31" width="200" height="206" as="geometry" />
        </mxCell>
        <mxCell id="HZn5qNQIZKqaOpFyqT_2-4" value="&lt;font style=&quot;font-size: 14px;&quot;&gt;prd-iot-1c-nonat&lt;/font&gt;" style="sketch=0;outlineConnect=0;gradientColor=none;html=1;whiteSpace=wrap;fontSize=12;fontStyle=0;shape=mxgraph.aws4.group;grIcon=mxgraph.aws4.group_subnet;strokeColor=#879196;fillColor=none;verticalAlign=top;align=left;spacingLeft=30;fontColor=#879196;dashed=0;" vertex="1" parent="HZn5qNQIZKqaOpFyqT_2-2">
          <mxGeometry x="660" y="30" width="240" height="210" as="geometry" />
        </mxCell>
        <mxCell id="HZn5qNQIZKqaOpFyqT_2-5" value="" style="rounded=1;whiteSpace=wrap;html=1;" vertex="1" parent="HZn5qNQIZKqaOpFyqT_2-2">
          <mxGeometry x="647" y="70" width="543" height="150" as="geometry" />
        </mxCell>
        <mxCell id="HZn5qNQIZKqaOpFyqT_2-6" value="&lt;font style=&quot;font-size: 14px;&quot;&gt;prd-iot-1c-nat-ipv4&lt;/font&gt;" style="sketch=0;outlineConnect=0;gradientColor=none;html=1;whiteSpace=wrap;fontSize=12;fontStyle=0;shape=mxgraph.aws4.group;grIcon=mxgraph.aws4.group_subnet;strokeColor=#879196;fillColor=none;verticalAlign=top;align=left;spacingLeft=30;fontColor=#879196;dashed=0;" vertex="1" parent="HZn5qNQIZKqaOpFyqT_2-2">
          <mxGeometry x="50" y="30" width="180" height="180" as="geometry" />
        </mxCell>
        <mxCell id="HZn5qNQIZKqaOpFyqT_2-7" value="&lt;span style=&quot;font-size: 14px;&quot;&gt;prd-iot-1b-nat-ipv4&lt;/span&gt;" style="sketch=0;outlineConnect=0;gradientColor=none;html=1;whiteSpace=wrap;fontSize=12;fontStyle=0;shape=mxgraph.aws4.group;grIcon=mxgraph.aws4.group_subnet;strokeColor=#879196;fillColor=none;verticalAlign=top;align=left;spacingLeft=30;fontColor=#879196;dashed=0;" vertex="1" parent="HZn5qNQIZKqaOpFyqT_2-2">
          <mxGeometry x="290" y="27.5" width="170" height="185" as="geometry" />
        </mxCell>
        <mxCell id="HZn5qNQIZKqaOpFyqT_2-8" value="" style="rounded=1;whiteSpace=wrap;html=1;" vertex="1" parent="HZn5qNQIZKqaOpFyqT_2-2">
          <mxGeometry x="40" y="70" width="430" height="130" as="geometry" />
        </mxCell>
        <mxCell id="HZn5qNQIZKqaOpFyqT_2-9" value="" style="rounded=0;orthogonalLoop=1;jettySize=auto;html=1;endArrow=none;endFill=0;" edge="1" parent="HZn5qNQIZKqaOpFyqT_2-2" source="HZn5qNQIZKqaOpFyqT_2-10" target="HZn5qNQIZKqaOpFyqT_2-11">
          <mxGeometry relative="1" as="geometry" />
        </mxCell>
        <mxCell id="HZn5qNQIZKqaOpFyqT_2-10" value="prd-vesync-main-v3-repl-v2" style="sketch=0;points=[[0,0,0],[0.25,0,0],[0.5,0,0],[0.75,0,0],[1,0,0],[0,1,0],[0.25,1,0],[0.5,1,0],[0.75,1,0],[1,1,0],[0,0.25,0],[0,0.5,0],[0,0.75,0],[1,0.25,0],[1,0.5,0],[1,0.75,0]];outlineConnect=0;fontColor=#232F3E;fillColor=#C925D1;strokeColor=#ffffff;dashed=0;verticalLabelPosition=bottom;verticalAlign=top;align=center;html=1;fontSize=12;fontStyle=0;aspect=fixed;shape=mxgraph.aws4.resourceIcon;resIcon=mxgraph.aws4.rds;" vertex="1" parent="HZn5qNQIZKqaOpFyqT_2-2">
          <mxGeometry x="1380" y="83.5" width="80" height="80" as="geometry" />
        </mxCell>
        <mxCell id="HZn5qNQIZKqaOpFyqT_2-11" value="prd-vesync-main-v3" style="sketch=0;points=[[0,0,0],[0.25,0,0],[0.5,0,0],[0.75,0,0],[1,0,0],[0,1,0],[0.25,1,0],[0.5,1,0],[0.75,1,0],[1,1,0],[0,0.25,0],[0,0.5,0],[0,0.75,0],[1,0.25,0],[1,0.5,0],[1,0.75,0]];outlineConnect=0;fontColor=#232F3E;fillColor=#C925D1;strokeColor=#ffffff;dashed=0;verticalLabelPosition=bottom;verticalAlign=top;align=center;html=1;fontSize=12;fontStyle=0;aspect=fixed;shape=mxgraph.aws4.resourceIcon;resIcon=mxgraph.aws4.rds;" vertex="1" parent="HZn5qNQIZKqaOpFyqT_2-2">
          <mxGeometry x="1610" y="83.5" width="80" height="80" as="geometry" />
        </mxCell>
        <mxCell id="HZn5qNQIZKqaOpFyqT_2-12" value="prd-cloud-emailService-1" style="sketch=0;points=[[0,0,0],[0.25,0,0],[0.5,0,0],[0.75,0,0],[1,0,0],[0,1,0],[0.25,1,0],[0.5,1,0],[0.75,1,0],[1,1,0],[0,0.25,0],[0,0.5,0],[0,0.75,0],[1,0.25,0],[1,0.5,0],[1,0.75,0]];outlineConnect=0;fontColor=#232F3E;fillColor=#ED7100;strokeColor=#ffffff;dashed=0;verticalLabelPosition=bottom;verticalAlign=top;align=center;html=1;fontSize=12;fontStyle=0;aspect=fixed;shape=mxgraph.aws4.resourceIcon;resIcon=mxgraph.aws4.ec2;" vertex="1" parent="HZn5qNQIZKqaOpFyqT_2-2">
          <mxGeometry x="110" y="81" width="78" height="78" as="geometry" />
        </mxCell>
        <mxCell id="HZn5qNQIZKqaOpFyqT_2-13" value="prd-cloud-emailService-2&lt;div&gt;&lt;br&gt;&lt;/div&gt;" style="sketch=0;points=[[0,0,0],[0.25,0,0],[0.5,0,0],[0.75,0,0],[1,0,0],[0,1,0],[0.25,1,0],[0.5,1,0],[0.75,1,0],[1,1,0],[0,0.25,0],[0,0.5,0],[0,0.75,0],[1,0.25,0],[1,0.5,0],[1,0.75,0]];outlineConnect=0;fontColor=#232F3E;fillColor=#ED7100;strokeColor=#ffffff;dashed=0;verticalLabelPosition=bottom;verticalAlign=top;align=center;html=1;fontSize=12;fontStyle=0;aspect=fixed;shape=mxgraph.aws4.resourceIcon;resIcon=mxgraph.aws4.ec2;" vertex="1" parent="HZn5qNQIZKqaOpFyqT_2-2">
          <mxGeometry x="330" y="83.5" width="78" height="78" as="geometry" />
        </mxCell>
        <mxCell id="HZn5qNQIZKqaOpFyqT_2-14" value="prd-mongo-replicaset-common-1" style="sketch=0;points=[[0,0,0],[0.25,0,0],[0.5,0,0],[0.75,0,0],[1,0,0],[0,1,0],[0.25,1,0],[0.5,1,0],[0.75,1,0],[1,1,0],[0,0.25,0],[0,0.5,0],[0,0.75,0],[1,0.25,0],[1,0.5,0],[1,0.75,0]];outlineConnect=0;fontColor=#232F3E;fillColor=#ED7100;strokeColor=#ffffff;dashed=0;verticalLabelPosition=bottom;verticalAlign=top;align=center;html=1;fontSize=12;fontStyle=0;aspect=fixed;shape=mxgraph.aws4.resourceIcon;resIcon=mxgraph.aws4.ec2;" vertex="1" parent="HZn5qNQIZKqaOpFyqT_2-2">
          <mxGeometry x="710.5" y="96" width="78" height="78" as="geometry" />
        </mxCell>
        <mxCell id="HZn5qNQIZKqaOpFyqT_2-15" value="prd-mongo-replicaset-common-3" style="sketch=0;points=[[0,0,0],[0.25,0,0],[0.5,0,0],[0.75,0,0],[1,0,0],[0,1,0],[0.25,1,0],[0.5,1,0],[0.75,1,0],[1,1,0],[0,0.25,0],[0,0.5,0],[0,0.75,0],[1,0.25,0],[1,0.5,0],[1,0.75,0]];outlineConnect=0;fontColor=#232F3E;fillColor=#ED7100;strokeColor=#ffffff;dashed=0;verticalLabelPosition=bottom;verticalAlign=top;align=center;html=1;fontSize=12;fontStyle=0;aspect=fixed;shape=mxgraph.aws4.resourceIcon;resIcon=mxgraph.aws4.ec2;" vertex="1" parent="HZn5qNQIZKqaOpFyqT_2-2">
          <mxGeometry x="750" y="111" width="78" height="78" as="geometry" />
        </mxCell>
        <mxCell id="HZn5qNQIZKqaOpFyqT_2-16" value="prd-mongo-replicaset-common-2" style="sketch=0;points=[[0,0,0],[0.25,0,0],[0.5,0,0],[0.75,0,0],[1,0,0],[0,1,0],[0.25,1,0],[0.5,1,0],[0.75,1,0],[1,1,0],[0,0.25,0],[0,0.5,0],[0,0.75,0],[1,0.25,0],[1,0.5,0],[1,0.75,0]];outlineConnect=0;fontColor=#232F3E;fillColor=#ED7100;strokeColor=#ffffff;dashed=0;verticalLabelPosition=bottom;verticalAlign=top;align=center;html=1;fontSize=12;fontStyle=0;aspect=fixed;shape=mxgraph.aws4.resourceIcon;resIcon=mxgraph.aws4.ec2;" vertex="1" parent="HZn5qNQIZKqaOpFyqT_2-2">
          <mxGeometry x="1010" y="95" width="78" height="78" as="geometry" />
        </mxCell>
        <mxCell id="HZn5qNQIZKqaOpFyqT_2-17" value="&lt;div style=&quot;color: rgb(22, 25, 31); font-family: &amp;quot;Amazon Ember&amp;quot;, &amp;quot;Helvetica Neue&amp;quot;, Roboto, Arial, sans-serif; font-size: 14px; text-align: start; background-color: rgb(255, 255, 255);&quot; class=&quot;awsui_child_18582_7onux_145&quot;&gt;&lt;div data-testid=&quot;column-value&quot;&gt;172.31.0.0/16&lt;/div&gt;&lt;div&gt;&lt;br&gt;&lt;/div&gt;&lt;/div&gt;&lt;div style=&quot;color: rgb(22, 25, 31); font-family: &amp;quot;Amazon Ember&amp;quot;, &amp;quot;Helvetica Neue&amp;quot;, Roboto, Arial, sans-serif; font-size: 14px; text-align: start; background-color: rgb(255, 255, 255);&quot; class=&quot;awsui_child_18582_7onux_145&quot;&gt;&lt;/div&gt;" style="text;html=1;align=center;verticalAlign=middle;whiteSpace=wrap;rounded=0;" vertex="1" parent="HZn5qNQIZKqaOpFyqT_2-2">
          <mxGeometry x="1481" y="10" width="60" height="30" as="geometry" />
        </mxCell>
        <mxCell id="HZn5qNQIZKqaOpFyqT_2-18" style="edgeStyle=orthogonalEdgeStyle;rounded=0;orthogonalLoop=1;jettySize=auto;html=1;entryX=0.25;entryY=1;entryDx=0;entryDy=0;entryPerimeter=0;" edge="1" parent="HZn5qNQIZKqaOpFyqT_2-2" source="HZn5qNQIZKqaOpFyqT_2-8" target="HZn5qNQIZKqaOpFyqT_2-10">
          <mxGeometry relative="1" as="geometry">
            <Array as="points">
              <mxPoint x="420" y="430" />
              <mxPoint x="1400" y="430" />
            </Array>
          </mxGeometry>
        </mxCell>
        <mxCell id="HZn5qNQIZKqaOpFyqT_2-19" value="&lt;b&gt;vesync-prd-platform-vpc&lt;/b&gt;" style="points=[[0,0],[0.25,0],[0.5,0],[0.75,0],[1,0],[1,0.25],[1,0.5],[1,0.75],[1,1],[0.75,1],[0.5,1],[0.25,1],[0,1],[0,0.75],[0,0.5],[0,0.25]];outlineConnect=0;gradientColor=none;html=1;whiteSpace=wrap;fontSize=12;fontStyle=0;container=1;pointerEvents=0;collapsible=0;recursiveResize=0;shape=mxgraph.aws4.group;grIcon=mxgraph.aws4.group_vpc2;strokeColor=#8C4FFF;fillColor=none;verticalAlign=top;align=left;spacingLeft=30;fontColor=#AAB7B8;dashed=0;" vertex="1" parent="HZn5qNQIZKqaOpFyqT_2-1">
          <mxGeometry x="762" y="720" width="508" height="470" as="geometry" />
        </mxCell>
        <mxCell id="HZn5qNQIZKqaOpFyqT_2-20" value="prd-platform-1b-nonat" style="sketch=0;outlineConnect=0;gradientColor=none;html=1;whiteSpace=wrap;fontSize=12;fontStyle=0;shape=mxgraph.aws4.group;grIcon=mxgraph.aws4.group_subnet;strokeColor=#879196;fillColor=none;verticalAlign=top;align=left;spacingLeft=30;fontColor=#879196;dashed=0;" vertex="1" parent="HZn5qNQIZKqaOpFyqT_2-19">
          <mxGeometry x="285" y="50" width="178" height="380" as="geometry" />
        </mxCell>
        <mxCell id="HZn5qNQIZKqaOpFyqT_2-21" value="prd-platform-1c-no&lt;span style=&quot;background-color: initial;&quot;&gt;nat&lt;/span&gt;" style="sketch=0;outlineConnect=0;gradientColor=none;html=1;whiteSpace=wrap;fontSize=12;fontStyle=0;shape=mxgraph.aws4.group;grIcon=mxgraph.aws4.group_subnet;strokeColor=#879196;fillColor=none;verticalAlign=top;align=left;spacingLeft=30;fontColor=#879196;dashed=0;" vertex="1" parent="HZn5qNQIZKqaOpFyqT_2-19">
          <mxGeometry x="30" y="50" width="180" height="380" as="geometry" />
        </mxCell>
        <mxCell id="HZn5qNQIZKqaOpFyqT_2-22" value="" style="rounded=1;whiteSpace=wrap;html=1;" vertex="1" parent="HZn5qNQIZKqaOpFyqT_2-19">
          <mxGeometry x="24" y="328" width="460" height="115" as="geometry" />
        </mxCell>
        <mxCell id="HZn5qNQIZKqaOpFyqT_2-23" value="" style="rounded=1;whiteSpace=wrap;html=1;" vertex="1" parent="HZn5qNQIZKqaOpFyqT_2-19">
          <mxGeometry x="20" y="205" width="460" height="115" as="geometry" />
        </mxCell>
        <mxCell id="HZn5qNQIZKqaOpFyqT_2-24" value="" style="rounded=1;whiteSpace=wrap;html=1;" vertex="1" parent="HZn5qNQIZKqaOpFyqT_2-19">
          <mxGeometry x="20" y="80" width="460" height="120" as="geometry" />
        </mxCell>
        <mxCell id="HZn5qNQIZKqaOpFyqT_2-25" value="&lt;div&gt;&lt;span style=&quot;background-color: initial;&quot;&gt;prd-cloud-platformBasicService-3&lt;/span&gt;&lt;br&gt;&lt;/div&gt;" style="sketch=0;points=[[0,0,0],[0.25,0,0],[0.5,0,0],[0.75,0,0],[1,0,0],[0,1,0],[0.25,1,0],[0.5,1,0],[0.75,1,0],[1,1,0],[0,0.25,0],[0,0.5,0],[0,0.75,0],[1,0.25,0],[1,0.5,0],[1,0.75,0]];outlineConnect=0;fontColor=#232F3E;fillColor=#ED7100;strokeColor=#ffffff;dashed=0;verticalLabelPosition=bottom;verticalAlign=top;align=center;html=1;fontSize=12;fontStyle=0;aspect=fixed;shape=mxgraph.aws4.resourceIcon;resIcon=mxgraph.aws4.ec2;" vertex="1" parent="HZn5qNQIZKqaOpFyqT_2-19">
          <mxGeometry x="70" y="94.5" width="78" height="78" as="geometry" />
        </mxCell>
        <mxCell id="HZn5qNQIZKqaOpFyqT_2-26" value="&lt;div&gt;&lt;span style=&quot;background-color: initial;&quot;&gt;prd-cloud-platformBasicService-4&lt;/span&gt;&lt;br&gt;&lt;/div&gt;" style="sketch=0;points=[[0,0,0],[0.25,0,0],[0.5,0,0],[0.75,0,0],[1,0,0],[0,1,0],[0.25,1,0],[0.5,1,0],[0.75,1,0],[1,1,0],[0,0.25,0],[0,0.5,0],[0,0.75,0],[1,0.25,0],[1,0.5,0],[1,0.75,0]];outlineConnect=0;fontColor=#232F3E;fillColor=#ED7100;strokeColor=#ffffff;dashed=0;verticalLabelPosition=bottom;verticalAlign=top;align=center;html=1;fontSize=12;fontStyle=0;aspect=fixed;shape=mxgraph.aws4.resourceIcon;resIcon=mxgraph.aws4.ec2;" vertex="1" parent="HZn5qNQIZKqaOpFyqT_2-19">
          <mxGeometry x="335" y="94.5" width="78" height="78" as="geometry" />
        </mxCell>
        <mxCell id="HZn5qNQIZKqaOpFyqT_2-27" value="&lt;div&gt;prd-cloud-connectBizService-3&lt;br&gt;&lt;/div&gt;" style="sketch=0;points=[[0,0,0],[0.25,0,0],[0.5,0,0],[0.75,0,0],[1,0,0],[0,1,0],[0.25,1,0],[0.5,1,0],[0.75,1,0],[1,1,0],[0,0.25,0],[0,0.5,0],[0,0.75,0],[1,0.25,0],[1,0.5,0],[1,0.75,0]];outlineConnect=0;fontColor=#232F3E;fillColor=#ED7100;strokeColor=#ffffff;dashed=0;verticalLabelPosition=bottom;verticalAlign=top;align=center;html=1;fontSize=12;fontStyle=0;aspect=fixed;shape=mxgraph.aws4.resourceIcon;resIcon=mxgraph.aws4.ec2;" vertex="1" parent="HZn5qNQIZKqaOpFyqT_2-19">
          <mxGeometry x="70" y="210" width="81" height="81" as="geometry" />
        </mxCell>
        <mxCell id="HZn5qNQIZKqaOpFyqT_2-28" value="&lt;div&gt;prd-cloud-connectBizService-4&lt;br&gt;&lt;/div&gt;" style="sketch=0;points=[[0,0,0],[0.25,0,0],[0.5,0,0],[0.75,0,0],[1,0,0],[0,1,0],[0.25,1,0],[0.5,1,0],[0.75,1,0],[1,1,0],[0,0.25,0],[0,0.5,0],[0,0.75,0],[1,0.25,0],[1,0.5,0],[1,0.75,0]];outlineConnect=0;fontColor=#232F3E;fillColor=#ED7100;strokeColor=#ffffff;dashed=0;verticalLabelPosition=bottom;verticalAlign=top;align=center;html=1;fontSize=12;fontStyle=0;aspect=fixed;shape=mxgraph.aws4.resourceIcon;resIcon=mxgraph.aws4.ec2;" vertex="1" parent="HZn5qNQIZKqaOpFyqT_2-19">
          <mxGeometry x="337" y="213" width="78" height="78" as="geometry" />
        </mxCell>
        <mxCell id="HZn5qNQIZKqaOpFyqT_2-29" value="prd-cloud-fileService-3" style="sketch=0;points=[[0,0,0],[0.25,0,0],[0.5,0,0],[0.75,0,0],[1,0,0],[0,1,0],[0.25,1,0],[0.5,1,0],[0.75,1,0],[1,1,0],[0,0.25,0],[0,0.5,0],[0,0.75,0],[1,0.25,0],[1,0.5,0],[1,0.75,0]];outlineConnect=0;fontColor=#232F3E;fillColor=#ED7100;strokeColor=#ffffff;dashed=0;verticalLabelPosition=bottom;verticalAlign=top;align=center;html=1;fontSize=12;fontStyle=0;aspect=fixed;shape=mxgraph.aws4.resourceIcon;resIcon=mxgraph.aws4.ec2;" vertex="1" parent="HZn5qNQIZKqaOpFyqT_2-19">
          <mxGeometry x="70" y="330" width="78" height="78" as="geometry" />
        </mxCell>
        <mxCell id="HZn5qNQIZKqaOpFyqT_2-30" value="prd-cloud-fileService-4" style="sketch=0;points=[[0,0,0],[0.25,0,0],[0.5,0,0],[0.75,0,0],[1,0,0],[0,1,0],[0.25,1,0],[0.5,1,0],[0.75,1,0],[1,1,0],[0,0.25,0],[0,0.5,0],[0,0.75,0],[1,0.25,0],[1,0.5,0],[1,0.75,0]];outlineConnect=0;fontColor=#232F3E;fillColor=#ED7100;strokeColor=#ffffff;dashed=0;verticalLabelPosition=bottom;verticalAlign=top;align=center;html=1;fontSize=12;fontStyle=0;aspect=fixed;shape=mxgraph.aws4.resourceIcon;resIcon=mxgraph.aws4.ec2;" vertex="1" parent="HZn5qNQIZKqaOpFyqT_2-19">
          <mxGeometry x="340" y="328" width="80" height="80" as="geometry" />
        </mxCell>
        <mxCell id="HZn5qNQIZKqaOpFyqT_2-31" value="&lt;div style=&quot;color: rgb(22, 25, 31); font-family: &amp;quot;Amazon Ember&amp;quot;, &amp;quot;Helvetica Neue&amp;quot;, Roboto, Arial, sans-serif; font-size: 14px; text-align: start; background-color: rgb(255, 255, 255);&quot; class=&quot;awsui_child_18582_7onux_145&quot;&gt;&lt;div data-testid=&quot;column-value&quot;&gt;10.91.0.0/16&lt;/div&gt;&lt;div&gt;&lt;br&gt;&lt;/div&gt;&lt;/div&gt;&lt;div style=&quot;color: rgb(22, 25, 31); font-family: &amp;quot;Amazon Ember&amp;quot;, &amp;quot;Helvetica Neue&amp;quot;, Roboto, Arial, sans-serif; font-size: 14px; text-align: start; background-color: rgb(255, 255, 255);&quot; class=&quot;awsui_child_18582_7onux_145&quot;&gt;&lt;/div&gt;" style="text;html=1;align=center;verticalAlign=middle;whiteSpace=wrap;rounded=0;" vertex="1" parent="HZn5qNQIZKqaOpFyqT_2-19">
          <mxGeometry x="390" y="11" width="60" height="30" as="geometry" />
        </mxCell>
        <mxCell id="HZn5qNQIZKqaOpFyqT_2-32" value="vesync-prd-gateway" style="points=[[0,0],[0.25,0],[0.5,0],[0.75,0],[1,0],[1,0.25],[1,0.5],[1,0.75],[1,1],[0.75,1],[0.5,1],[0.25,1],[0,1],[0,0.75],[0,0.5],[0,0.25]];outlineConnect=0;gradientColor=none;html=1;whiteSpace=wrap;fontSize=12;fontStyle=0;container=1;pointerEvents=0;collapsible=0;recursiveResize=0;shape=mxgraph.aws4.group;grIcon=mxgraph.aws4.group_vpc2;strokeColor=#8C4FFF;fillColor=none;verticalAlign=top;align=left;spacingLeft=30;fontColor=#AAB7B8;dashed=0;" vertex="1" parent="HZn5qNQIZKqaOpFyqT_2-1">
          <mxGeometry x="72" y="61" width="530" height="630" as="geometry" />
        </mxCell>
        <mxCell id="HZn5qNQIZKqaOpFyqT_2-33" value="prd-gateway-inner-1c" style="sketch=0;outlineConnect=0;gradientColor=none;html=1;whiteSpace=wrap;fontSize=12;fontStyle=0;shape=mxgraph.aws4.group;grIcon=mxgraph.aws4.group_subnet;strokeColor=#879196;fillColor=none;verticalAlign=top;align=left;spacingLeft=30;fontColor=#879196;dashed=0;" vertex="1" parent="HZn5qNQIZKqaOpFyqT_2-32">
          <mxGeometry x="70" y="330" width="430" height="236" as="geometry" />
        </mxCell>
        <mxCell id="HZn5qNQIZKqaOpFyqT_2-34" value="prd-gateway-inner-1b" style="sketch=0;outlineConnect=0;gradientColor=none;html=1;whiteSpace=wrap;fontSize=12;fontStyle=0;shape=mxgraph.aws4.group;grIcon=mxgraph.aws4.group_subnet;strokeColor=#879196;fillColor=none;verticalAlign=top;align=left;spacingLeft=30;fontColor=#879196;dashed=0;" vertex="1" parent="HZn5qNQIZKqaOpFyqT_2-32">
          <mxGeometry x="70" y="64" width="270" height="236" as="geometry" />
        </mxCell>
        <mxCell id="HZn5qNQIZKqaOpFyqT_2-35" value="prd-cloud-internalGateway-1" style="sketch=0;points=[[0,0,0],[0.25,0,0],[0.5,0,0],[0.75,0,0],[1,0,0],[0,1,0],[0.25,1,0],[0.5,1,0],[0.75,1,0],[1,1,0],[0,0.25,0],[0,0.5,0],[0,0.75,0],[1,0.25,0],[1,0.5,0],[1,0.75,0]];outlineConnect=0;fontColor=#232F3E;fillColor=#ED7100;strokeColor=#ffffff;dashed=0;verticalLabelPosition=bottom;verticalAlign=top;align=center;html=1;fontSize=12;fontStyle=1;aspect=fixed;shape=mxgraph.aws4.resourceIcon;resIcon=mxgraph.aws4.ec2;" vertex="1" parent="HZn5qNQIZKqaOpFyqT_2-32">
          <mxGeometry x="130" y="386" width="78" height="78" as="geometry" />
        </mxCell>
        <mxCell id="HZn5qNQIZKqaOpFyqT_2-36" value="prd-cloud-internalGateway-2" style="sketch=0;points=[[0,0,0],[0.25,0,0],[0.5,0,0],[0.75,0,0],[1,0,0],[0,1,0],[0.25,1,0],[0.5,1,0],[0.75,1,0],[1,1,0],[0,0.25,0],[0,0.5,0],[0,0.75,0],[1,0.25,0],[1,0.5,0],[1,0.75,0]];outlineConnect=0;fontColor=#232F3E;fillColor=#ED7100;strokeColor=#ffffff;dashed=0;verticalLabelPosition=bottom;verticalAlign=top;align=center;html=1;fontSize=12;fontStyle=1;aspect=fixed;shape=mxgraph.aws4.resourceIcon;resIcon=mxgraph.aws4.ec2;" vertex="1" parent="HZn5qNQIZKqaOpFyqT_2-32">
          <mxGeometry x="120" y="120" width="78" height="78" as="geometry" />
        </mxCell>
        <mxCell id="HZn5qNQIZKqaOpFyqT_2-37" value="prd-cloud-internalGatewayAdmin-1" style="sketch=0;points=[[0,0,0],[0.25,0,0],[0.5,0,0],[0.75,0,0],[1,0,0],[0,1,0],[0.25,1,0],[0.5,1,0],[0.75,1,0],[1,1,0],[0,0.25,0],[0,0.5,0],[0,0.75,0],[1,0.25,0],[1,0.5,0],[1,0.75,0]];outlineConnect=0;fontColor=#232F3E;fillColor=#ED7100;strokeColor=#ffffff;dashed=0;verticalLabelPosition=bottom;verticalAlign=top;align=center;html=1;fontSize=12;fontStyle=1;aspect=fixed;shape=mxgraph.aws4.resourceIcon;resIcon=mxgraph.aws4.ec2;" vertex="1" parent="HZn5qNQIZKqaOpFyqT_2-32">
          <mxGeometry x="340" y="386" width="78" height="78" as="geometry" />
        </mxCell>
        <mxCell id="HZn5qNQIZKqaOpFyqT_2-38" value="&lt;span style=&quot;color: rgb(22, 25, 31); font-family: &amp;quot;Amazon Ember&amp;quot;, &amp;quot;Helvetica Neue&amp;quot;, Roboto, Arial, sans-serif; font-size: 14px; text-align: start; background-color: rgb(255, 255, 255);&quot;&gt;10.105.0.0/16&lt;/span&gt;" style="text;html=1;align=center;verticalAlign=middle;whiteSpace=wrap;rounded=0;" vertex="1" parent="HZn5qNQIZKqaOpFyqT_2-32">
          <mxGeometry x="450" width="60" height="30" as="geometry" />
        </mxCell>
        <mxCell id="HZn5qNQIZKqaOpFyqT_2-39" value="" style="endArrow=none;html=1;rounded=0;" edge="1" parent="HZn5qNQIZKqaOpFyqT_2-1" source="HZn5qNQIZKqaOpFyqT_2-32" target="HZn5qNQIZKqaOpFyqT_2-42">
          <mxGeometry width="50" height="50" relative="1" as="geometry">
            <mxPoint x="-378" y="-482" as="sourcePoint" />
            <mxPoint x="-119" y="-490" as="targetPoint" />
          </mxGeometry>
        </mxCell>
        <mxCell id="HZn5qNQIZKqaOpFyqT_2-40" style="edgeStyle=orthogonalEdgeStyle;rounded=0;orthogonalLoop=1;jettySize=auto;html=1;entryX=0;entryY=0.5;entryDx=0;entryDy=0;endArrow=none;endFill=0;" edge="1" parent="HZn5qNQIZKqaOpFyqT_2-1" source="HZn5qNQIZKqaOpFyqT_2-42" target="HZn5qNQIZKqaOpFyqT_2-2">
          <mxGeometry relative="1" as="geometry" />
        </mxCell>
        <mxCell id="HZn5qNQIZKqaOpFyqT_2-41" style="edgeStyle=orthogonalEdgeStyle;rounded=0;orthogonalLoop=1;jettySize=auto;html=1;entryX=0.5;entryY=0;entryDx=0;entryDy=0;endArrow=none;endFill=0;" edge="1" parent="HZn5qNQIZKqaOpFyqT_2-1" source="HZn5qNQIZKqaOpFyqT_2-42" target="HZn5qNQIZKqaOpFyqT_2-19">
          <mxGeometry relative="1" as="geometry">
            <Array as="points">
              <mxPoint x="892" y="384" />
              <mxPoint x="892" y="560" />
              <mxPoint x="1016" y="560" />
            </Array>
          </mxGeometry>
        </mxCell>
        <mxCell id="HZn5qNQIZKqaOpFyqT_2-42" value="" style="outlineConnect=0;dashed=0;verticalLabelPosition=bottom;verticalAlign=top;align=center;html=1;shape=mxgraph.aws3.vpc_peering;fillColor=#F58534;gradientColor=none;direction=south;" vertex="1" parent="HZn5qNQIZKqaOpFyqT_2-1">
          <mxGeometry x="674" y="349" width="72" height="69" as="geometry" />
        </mxCell>
        <mxCell id="HZn5qNQIZKqaOpFyqT_2-43" style="edgeStyle=orthogonalEdgeStyle;rounded=0;orthogonalLoop=1;jettySize=auto;html=1;" edge="1" parent="HZn5qNQIZKqaOpFyqT_2-1" source="HZn5qNQIZKqaOpFyqT_2-24" target="HZn5qNQIZKqaOpFyqT_2-5">
          <mxGeometry relative="1" as="geometry" />
        </mxCell>
        <mxCell id="HZn5qNQIZKqaOpFyqT_2-44" style="edgeStyle=orthogonalEdgeStyle;rounded=0;orthogonalLoop=1;jettySize=auto;html=1;entryX=0.5;entryY=1;entryDx=0;entryDy=0;entryPerimeter=0;" edge="1" parent="HZn5qNQIZKqaOpFyqT_2-1" source="HZn5qNQIZKqaOpFyqT_2-24" target="HZn5qNQIZKqaOpFyqT_2-10">
          <mxGeometry relative="1" as="geometry" />
        </mxCell>
        <mxCell id="HZn5qNQIZKqaOpFyqT_2-45" style="edgeStyle=orthogonalEdgeStyle;rounded=0;orthogonalLoop=1;jettySize=auto;html=1;entryX=0.641;entryY=1.013;entryDx=0;entryDy=0;entryPerimeter=0;" edge="1" parent="HZn5qNQIZKqaOpFyqT_2-1" source="HZn5qNQIZKqaOpFyqT_2-23" target="HZn5qNQIZKqaOpFyqT_2-5">
          <mxGeometry relative="1" as="geometry" />
        </mxCell>
        <mxCell id="HZn5qNQIZKqaOpFyqT_2-46" style="edgeStyle=orthogonalEdgeStyle;rounded=0;orthogonalLoop=1;jettySize=auto;html=1;entryX=0.75;entryY=1;entryDx=0;entryDy=0;entryPerimeter=0;" edge="1" parent="HZn5qNQIZKqaOpFyqT_2-1" source="HZn5qNQIZKqaOpFyqT_2-23" target="HZn5qNQIZKqaOpFyqT_2-10">
          <mxGeometry relative="1" as="geometry" />
        </mxCell>
        <mxCell id="HZn5qNQIZKqaOpFyqT_2-47" style="edgeStyle=orthogonalEdgeStyle;rounded=0;orthogonalLoop=1;jettySize=auto;html=1;entryX=1;entryY=1;entryDx=0;entryDy=0;entryPerimeter=0;" edge="1" parent="HZn5qNQIZKqaOpFyqT_2-1" source="HZn5qNQIZKqaOpFyqT_2-22" target="HZn5qNQIZKqaOpFyqT_2-10">
          <mxGeometry relative="1" as="geometry" />
        </mxCell>
        <mxCell id="HZn5qNQIZKqaOpFyqT_2-48" style="edgeStyle=orthogonalEdgeStyle;rounded=0;orthogonalLoop=1;jettySize=auto;html=1;endArrow=none;endFill=0;entryX=0.797;entryY=0;entryDx=0;entryDy=0;entryPerimeter=0;" edge="1" parent="HZn5qNQIZKqaOpFyqT_2-1" source="HZn5qNQIZKqaOpFyqT_2-50" target="HZn5qNQIZKqaOpFyqT_2-19">
          <mxGeometry relative="1" as="geometry">
            <mxPoint x="1167" y="710" as="targetPoint" />
          </mxGeometry>
        </mxCell>
        <mxCell id="HZn5qNQIZKqaOpFyqT_2-49" style="edgeStyle=orthogonalEdgeStyle;rounded=0;orthogonalLoop=1;jettySize=auto;html=1;endArrow=none;endFill=0;" edge="1" parent="HZn5qNQIZKqaOpFyqT_2-1" source="HZn5qNQIZKqaOpFyqT_2-50" target="HZn5qNQIZKqaOpFyqT_2-2">
          <mxGeometry relative="1" as="geometry">
            <Array as="points">
              <mxPoint x="1168" y="380" />
              <mxPoint x="1168" y="380" />
            </Array>
          </mxGeometry>
        </mxCell>
        <mxCell id="HZn5qNQIZKqaOpFyqT_2-50" value="" style="outlineConnect=0;dashed=0;verticalLabelPosition=bottom;verticalAlign=top;align=center;html=1;shape=mxgraph.aws3.vpc_peering;fillColor=#F58534;gradientColor=none;direction=south;" vertex="1" parent="HZn5qNQIZKqaOpFyqT_2-1">
          <mxGeometry x="1132" y="470" width="72" height="70" as="geometry" />
        </mxCell>
        <mxCell id="HZn5qNQIZKqaOpFyqT_2-51" style="edgeStyle=orthogonalEdgeStyle;rounded=0;orthogonalLoop=1;jettySize=auto;html=1;startArrow=classic;startFill=1;" edge="1" parent="HZn5qNQIZKqaOpFyqT_2-1" source="HZn5qNQIZKqaOpFyqT_2-54" target="HZn5qNQIZKqaOpFyqT_2-32">
          <mxGeometry relative="1" as="geometry">
            <Array as="points">
              <mxPoint x="612" y="236" />
              <mxPoint x="612" y="236" />
            </Array>
          </mxGeometry>
        </mxCell>
        <mxCell id="HZn5qNQIZKqaOpFyqT_2-52" style="edgeStyle=orthogonalEdgeStyle;rounded=0;orthogonalLoop=1;jettySize=auto;html=1;startArrow=none;startFill=0;" edge="1" parent="HZn5qNQIZKqaOpFyqT_2-1" source="HZn5qNQIZKqaOpFyqT_2-54" target="HZn5qNQIZKqaOpFyqT_2-2">
          <mxGeometry relative="1" as="geometry">
            <Array as="points">
              <mxPoint x="724" y="120" />
            </Array>
          </mxGeometry>
        </mxCell>
        <mxCell id="HZn5qNQIZKqaOpFyqT_2-53" style="edgeStyle=orthogonalEdgeStyle;rounded=0;orthogonalLoop=1;jettySize=auto;html=1;startArrow=classic;startFill=1;" edge="1" parent="HZn5qNQIZKqaOpFyqT_2-1" source="HZn5qNQIZKqaOpFyqT_2-54">
          <mxGeometry relative="1" as="geometry">
            <mxPoint x="922" y="720" as="targetPoint" />
            <Array as="points">
              <mxPoint x="922" y="236" />
              <mxPoint x="922" y="720" />
            </Array>
          </mxGeometry>
        </mxCell>
        <mxCell id="HZn5qNQIZKqaOpFyqT_2-54" value="&lt;font style=&quot;font-size: 17px;&quot;&gt;elb&lt;/font&gt;" style="outlineConnect=0;dashed=0;verticalLabelPosition=bottom;verticalAlign=top;align=center;html=1;shape=mxgraph.aws3.elastic_load_balancing;fillColor=#F58536;gradientColor=none;" vertex="1" parent="HZn5qNQIZKqaOpFyqT_2-1">
          <mxGeometry x="685.5" y="189" width="76.5" height="93" as="geometry" />
        </mxCell>
        <mxCell id="HZn5qNQIZKqaOpFyqT_2-55" value="vesync-infrastructure" style="points=[[0,0],[0.25,0],[0.5,0],[0.75,0],[1,0],[1,0.25],[1,0.5],[1,0.75],[1,1],[0.75,1],[0.5,1],[0.25,1],[0,1],[0,0.75],[0,0.5],[0,0.25]];outlineConnect=0;gradientColor=none;html=1;whiteSpace=wrap;fontSize=12;fontStyle=0;container=1;pointerEvents=0;collapsible=0;recursiveResize=0;shape=mxgraph.aws4.group;grIcon=mxgraph.aws4.group_account;strokeColor=#CD2264;fillColor=none;verticalAlign=top;align=left;spacingLeft=30;fontColor=#CD2264;dashed=0;" vertex="1" parent="1">
          <mxGeometry x="974" y="490" width="680" height="870" as="geometry" />
        </mxCell>
        <mxCell id="HZn5qNQIZKqaOpFyqT_2-56" value="" style="rounded=1;whiteSpace=wrap;html=1;" vertex="1" parent="HZn5qNQIZKqaOpFyqT_2-55">
          <mxGeometry x="65" y="630" width="575" height="160" as="geometry" />
        </mxCell>
        <mxCell id="HZn5qNQIZKqaOpFyqT_2-57" value="" style="rounded=1;whiteSpace=wrap;html=1;" vertex="1" parent="HZn5qNQIZKqaOpFyqT_2-55">
          <mxGeometry x="65" y="446" width="575" height="164" as="geometry" />
        </mxCell>
        <mxCell id="HZn5qNQIZKqaOpFyqT_2-58" value="" style="rounded=1;whiteSpace=wrap;html=1;" vertex="1" parent="HZn5qNQIZKqaOpFyqT_2-55">
          <mxGeometry x="71" y="130" width="569" height="130" as="geometry" />
        </mxCell>
        <mxCell id="HZn5qNQIZKqaOpFyqT_2-59" value="" style="rounded=1;whiteSpace=wrap;html=1;" vertex="1" parent="HZn5qNQIZKqaOpFyqT_2-55">
          <mxGeometry x="65" y="271" width="575" height="169" as="geometry" />
        </mxCell>
        <mxCell id="HZn5qNQIZKqaOpFyqT_2-60" value="vesync-prd-middleware-vpc" style="points=[[0,0],[0.25,0],[0.5,0],[0.75,0],[1,0],[1,0.25],[1,0.5],[1,0.75],[1,1],[0.75,1],[0.5,1],[0.25,1],[0,1],[0,0.75],[0,0.5],[0,0.25]];outlineConnect=0;gradientColor=none;html=1;whiteSpace=wrap;fontSize=12;fontStyle=0;container=1;pointerEvents=0;collapsible=0;recursiveResize=0;shape=mxgraph.aws4.group;grIcon=mxgraph.aws4.group_vpc2;strokeColor=#8C4FFF;fillColor=none;verticalAlign=top;align=left;spacingLeft=30;fontColor=#AAB7B8;dashed=0;" vertex="1" parent="HZn5qNQIZKqaOpFyqT_2-55">
          <mxGeometry x="80" y="60" width="570" height="760" as="geometry" />
        </mxCell>
        <mxCell id="HZn5qNQIZKqaOpFyqT_2-61" value="&lt;div&gt;vesync-prd-middleware-subnet-private2-us-east-1b&lt;/div&gt;&lt;div&gt;&lt;br&gt;&lt;/div&gt;" style="sketch=0;outlineConnect=0;gradientColor=none;html=1;whiteSpace=wrap;fontSize=12;fontStyle=0;shape=mxgraph.aws4.group;grIcon=mxgraph.aws4.group_subnet;strokeColor=#879196;fillColor=none;verticalAlign=top;align=left;spacingLeft=30;fontColor=#879196;dashed=0;" vertex="1" parent="HZn5qNQIZKqaOpFyqT_2-60">
          <mxGeometry x="20" y="30" width="200" height="710" as="geometry" />
        </mxCell>
        <mxCell id="HZn5qNQIZKqaOpFyqT_2-62" value="vesync-prd-middleware-subnet-private1-us-east-1a" style="sketch=0;outlineConnect=0;gradientColor=none;html=1;whiteSpace=wrap;fontSize=12;fontStyle=0;shape=mxgraph.aws4.group;grIcon=mxgraph.aws4.group_subnet;strokeColor=#879196;fillColor=none;verticalAlign=top;align=left;spacingLeft=30;fontColor=#879196;dashed=0;" vertex="1" parent="HZn5qNQIZKqaOpFyqT_2-60">
          <mxGeometry x="290" y="30" width="220" height="710" as="geometry" />
        </mxCell>
        <mxCell id="HZn5qNQIZKqaOpFyqT_2-63" value="prd-es-cluster-common-biz-4" style="sketch=0;points=[[0,0,0],[0.25,0,0],[0.5,0,0],[0.75,0,0],[1,0,0],[0,1,0],[0.25,1,0],[0.5,1,0],[0.75,1,0],[1,1,0],[0,0.25,0],[0,0.5,0],[0,0.75,0],[1,0.25,0],[1,0.5,0],[1,0.75,0]];outlineConnect=0;fontColor=#232F3E;fillColor=#ED7100;strokeColor=#ffffff;dashed=0;verticalLabelPosition=bottom;verticalAlign=top;align=center;html=1;fontSize=12;fontStyle=0;aspect=fixed;shape=mxgraph.aws4.resourceIcon;resIcon=mxgraph.aws4.ec2;" vertex="1" parent="HZn5qNQIZKqaOpFyqT_2-60">
          <mxGeometry x="60" y="76" width="78" height="78" as="geometry" />
        </mxCell>
        <mxCell id="HZn5qNQIZKqaOpFyqT_2-64" value="prd-es-cluster-common-biz-5" style="sketch=0;points=[[0,0,0],[0.25,0,0],[0.5,0,0],[0.75,0,0],[1,0,0],[0,1,0],[0.25,1,0],[0.5,1,0],[0.75,1,0],[1,1,0],[0,0.25,0],[0,0.5,0],[0,0.75,0],[1,0.25,0],[1,0.5,0],[1,0.75,0]];outlineConnect=0;fontColor=#232F3E;fillColor=#ED7100;strokeColor=#ffffff;dashed=0;verticalLabelPosition=bottom;verticalAlign=top;align=center;html=1;fontSize=12;fontStyle=0;aspect=fixed;shape=mxgraph.aws4.resourceIcon;resIcon=mxgraph.aws4.ec2;" vertex="1" parent="HZn5qNQIZKqaOpFyqT_2-60">
          <mxGeometry x="340" y="76" width="78" height="78" as="geometry" />
        </mxCell>
        <mxCell id="HZn5qNQIZKqaOpFyqT_2-65" value="prd-es-cluster-common-biz-6" style="sketch=0;points=[[0,0,0],[0.25,0,0],[0.5,0,0],[0.75,0,0],[1,0,0],[0,1,0],[0.25,1,0],[0.5,1,0],[0.75,1,0],[1,1,0],[0,0.25,0],[0,0.5,0],[0,0.75,0],[1,0.25,0],[1,0.5,0],[1,0.75,0]];outlineConnect=0;fontColor=#232F3E;fillColor=#ED7100;strokeColor=#ffffff;dashed=0;verticalLabelPosition=bottom;verticalAlign=top;align=center;html=1;fontSize=12;fontStyle=0;aspect=fixed;shape=mxgraph.aws4.resourceIcon;resIcon=mxgraph.aws4.ec2;" vertex="1" parent="HZn5qNQIZKqaOpFyqT_2-60">
          <mxGeometry x="370" y="100" width="78" height="78" as="geometry" />
        </mxCell>
        <mxCell id="HZn5qNQIZKqaOpFyqT_2-66" value="&lt;div&gt;prd-redis-cluster-common-2&lt;/div&gt;&lt;div&gt;&lt;br&gt;&lt;/div&gt;" style="sketch=0;points=[[0,0,0],[0.25,0,0],[0.5,0,0],[0.75,0,0],[1,0,0],[0,1,0],[0.25,1,0],[0.5,1,0],[0.75,1,0],[1,1,0],[0,0.25,0],[0,0.5,0],[0,0.75,0],[1,0.25,0],[1,0.5,0],[1,0.75,0]];outlineConnect=0;fontColor=#232F3E;fillColor=#ED7100;strokeColor=#ffffff;dashed=0;verticalLabelPosition=bottom;verticalAlign=top;align=center;html=1;fontSize=12;fontStyle=0;aspect=fixed;shape=mxgraph.aws4.resourceIcon;resIcon=mxgraph.aws4.ec2;" vertex="1" parent="HZn5qNQIZKqaOpFyqT_2-60">
          <mxGeometry x="57.5" y="211" width="78" height="78" as="geometry" />
        </mxCell>
        <mxCell id="HZn5qNQIZKqaOpFyqT_2-67" value="&lt;div&gt;prd-redis-cluster-common-4&lt;/div&gt;&lt;div&gt;&lt;br&gt;&lt;/div&gt;" style="sketch=0;points=[[0,0,0],[0.25,0,0],[0.5,0,0],[0.75,0,0],[1,0,0],[0,1,0],[0.25,1,0],[0.5,1,0],[0.75,1,0],[1,1,0],[0,0.25,0],[0,0.5,0],[0,0.75,0],[1,0.25,0],[1,0.5,0],[1,0.75,0]];outlineConnect=0;fontColor=#232F3E;fillColor=#ED7100;strokeColor=#ffffff;dashed=0;verticalLabelPosition=bottom;verticalAlign=top;align=center;html=1;fontSize=12;fontStyle=0;aspect=fixed;shape=mxgraph.aws4.resourceIcon;resIcon=mxgraph.aws4.ec2;" vertex="1" parent="HZn5qNQIZKqaOpFyqT_2-60">
          <mxGeometry x="76.5" y="231" width="78" height="78" as="geometry" />
        </mxCell>
        <mxCell id="HZn5qNQIZKqaOpFyqT_2-68" value="&lt;div&gt;prd-redis-cluster-common-8&lt;/div&gt;" style="sketch=0;points=[[0,0,0],[0.25,0,0],[0.5,0,0],[0.75,0,0],[1,0,0],[0,1,0],[0.25,1,0],[0.5,1,0],[0.75,1,0],[1,1,0],[0,0.25,0],[0,0.5,0],[0,0.75,0],[1,0.25,0],[1,0.5,0],[1,0.75,0]];outlineConnect=0;fontColor=#232F3E;fillColor=#ED7100;strokeColor=#ffffff;dashed=0;verticalLabelPosition=bottom;verticalAlign=top;align=center;html=1;fontSize=12;fontStyle=0;aspect=fixed;shape=mxgraph.aws4.resourceIcon;resIcon=mxgraph.aws4.ec2;" vertex="1" parent="HZn5qNQIZKqaOpFyqT_2-60">
          <mxGeometry x="104.5" y="251" width="78" height="78" as="geometry" />
        </mxCell>
        <mxCell id="HZn5qNQIZKqaOpFyqT_2-69" value="&lt;div&gt;prd-redis-cluster-common-9&lt;/div&gt;" style="sketch=0;points=[[0,0,0],[0.25,0,0],[0.5,0,0],[0.75,0,0],[1,0,0],[0,1,0],[0.25,1,0],[0.5,1,0],[0.75,1,0],[1,1,0],[0,0.25,0],[0,0.5,0],[0,0.75,0],[1,0.25,0],[1,0.5,0],[1,0.75,0]];outlineConnect=0;fontColor=#232F3E;fillColor=#ED7100;strokeColor=#ffffff;dashed=0;verticalLabelPosition=bottom;verticalAlign=top;align=center;html=1;fontSize=12;fontStyle=0;aspect=fixed;shape=mxgraph.aws4.resourceIcon;resIcon=mxgraph.aws4.ec2;" vertex="1" parent="HZn5qNQIZKqaOpFyqT_2-60">
          <mxGeometry x="317" y="220" width="78" height="78" as="geometry" />
        </mxCell>
        <mxCell id="HZn5qNQIZKqaOpFyqT_2-70" value="&lt;div&gt;prd-redis-cluster-common-10&lt;/div&gt;" style="sketch=0;points=[[0,0,0],[0.25,0,0],[0.5,0,0],[0.75,0,0],[1,0,0],[0,1,0],[0.25,1,0],[0.5,1,0],[0.75,1,0],[1,1,0],[0,0.25,0],[0,0.5,0],[0,0.75,0],[1,0.25,0],[1,0.5,0],[1,0.75,0]];outlineConnect=0;fontColor=#232F3E;fillColor=#ED7100;strokeColor=#ffffff;dashed=0;verticalLabelPosition=bottom;verticalAlign=top;align=center;html=1;fontSize=12;fontStyle=0;aspect=fixed;shape=mxgraph.aws4.resourceIcon;resIcon=mxgraph.aws4.ec2;" vertex="1" parent="HZn5qNQIZKqaOpFyqT_2-60">
          <mxGeometry x="347" y="234" width="78" height="78" as="geometry" />
        </mxCell>
        <mxCell id="HZn5qNQIZKqaOpFyqT_2-71" value="&lt;div&gt;prd-redis-cluster-common-11&lt;/div&gt;" style="sketch=0;points=[[0,0,0],[0.25,0,0],[0.5,0,0],[0.75,0,0],[1,0,0],[0,1,0],[0.25,1,0],[0.5,1,0],[0.75,1,0],[1,1,0],[0,0.25,0],[0,0.5,0],[0,0.75,0],[1,0.25,0],[1,0.5,0],[1,0.75,0]];outlineConnect=0;fontColor=#232F3E;fillColor=#ED7100;strokeColor=#ffffff;dashed=0;verticalLabelPosition=bottom;verticalAlign=top;align=center;html=1;fontSize=12;fontStyle=0;aspect=fixed;shape=mxgraph.aws4.resourceIcon;resIcon=mxgraph.aws4.ec2;" vertex="1" parent="HZn5qNQIZKqaOpFyqT_2-60">
          <mxGeometry x="377" y="245" width="78" height="78" as="geometry" />
        </mxCell>
        <mxCell id="HZn5qNQIZKqaOpFyqT_2-72" value="&lt;div&gt;prd-redis-cluster-common-12&lt;/div&gt;" style="sketch=0;points=[[0,0,0],[0.25,0,0],[0.5,0,0],[0.75,0,0],[1,0,0],[0,1,0],[0.25,1,0],[0.5,1,0],[0.75,1,0],[1,1,0],[0,0.25,0],[0,0.5,0],[0,0.75,0],[1,0.25,0],[1,0.5,0],[1,0.75,0]];outlineConnect=0;fontColor=#232F3E;fillColor=#ED7100;strokeColor=#ffffff;dashed=0;verticalLabelPosition=bottom;verticalAlign=top;align=center;html=1;fontSize=12;fontStyle=0;aspect=fixed;shape=mxgraph.aws4.resourceIcon;resIcon=mxgraph.aws4.ec2;" vertex="1" parent="HZn5qNQIZKqaOpFyqT_2-60">
          <mxGeometry x="407" y="264" width="78" height="78" as="geometry" />
        </mxCell>
        <mxCell id="HZn5qNQIZKqaOpFyqT_2-73" value="prd-es-cluster-common-log2-4" style="sketch=0;points=[[0,0,0],[0.25,0,0],[0.5,0,0],[0.75,0,0],[1,0,0],[0,1,0],[0.25,1,0],[0.5,1,0],[0.75,1,0],[1,1,0],[0,0.25,0],[0,0.5,0],[0,0.75,0],[1,0.25,0],[1,0.5,0],[1,0.75,0]];outlineConnect=0;fontColor=#232F3E;fillColor=#ED7100;strokeColor=#ffffff;dashed=0;verticalLabelPosition=bottom;verticalAlign=top;align=center;html=1;fontSize=12;fontStyle=0;aspect=fixed;shape=mxgraph.aws4.resourceIcon;resIcon=mxgraph.aws4.ec2;" vertex="1" parent="HZn5qNQIZKqaOpFyqT_2-60">
          <mxGeometry x="317" y="390" width="78" height="78" as="geometry" />
        </mxCell>
        <mxCell id="HZn5qNQIZKqaOpFyqT_2-74" value="&lt;div&gt;prd-es-cluster-common-log1-1&lt;/div&gt;" style="sketch=0;points=[[0,0,0],[0.25,0,0],[0.5,0,0],[0.75,0,0],[1,0,0],[0,1,0],[0.25,1,0],[0.5,1,0],[0.75,1,0],[1,1,0],[0,0.25,0],[0,0.5,0],[0,0.75,0],[1,0.25,0],[1,0.5,0],[1,0.75,0]];outlineConnect=0;fontColor=#232F3E;fillColor=#ED7100;strokeColor=#ffffff;dashed=0;verticalLabelPosition=bottom;verticalAlign=top;align=center;html=1;fontSize=12;fontStyle=0;aspect=fixed;shape=mxgraph.aws4.resourceIcon;resIcon=mxgraph.aws4.ec2;" vertex="1" parent="HZn5qNQIZKqaOpFyqT_2-60">
          <mxGeometry x="44" y="386" width="78" height="78" as="geometry" />
        </mxCell>
        <mxCell id="HZn5qNQIZKqaOpFyqT_2-75" value="&lt;div&gt;prd-es-cluster-common-log1-2&lt;/div&gt;" style="sketch=0;points=[[0,0,0],[0.25,0,0],[0.5,0,0],[0.75,0,0],[1,0,0],[0,1,0],[0.25,1,0],[0.5,1,0],[0.75,1,0],[1,1,0],[0,0.25,0],[0,0.5,0],[0,0.75,0],[1,0.25,0],[1,0.5,0],[1,0.75,0]];outlineConnect=0;fontColor=#232F3E;fillColor=#ED7100;strokeColor=#ffffff;dashed=0;verticalLabelPosition=bottom;verticalAlign=top;align=center;html=1;fontSize=12;fontStyle=0;aspect=fixed;shape=mxgraph.aws4.resourceIcon;resIcon=mxgraph.aws4.ec2;" vertex="1" parent="HZn5qNQIZKqaOpFyqT_2-60">
          <mxGeometry x="64" y="406" width="78" height="78" as="geometry" />
        </mxCell>
        <mxCell id="HZn5qNQIZKqaOpFyqT_2-76" value="&lt;div&gt;prd-es-cluster-common-log1-3&lt;/div&gt;" style="sketch=0;points=[[0,0,0],[0.25,0,0],[0.5,0,0],[0.75,0,0],[1,0,0],[0,1,0],[0.25,1,0],[0.5,1,0],[0.75,1,0],[1,1,0],[0,0.25,0],[0,0.5,0],[0,0.75,0],[1,0.25,0],[1,0.5,0],[1,0.75,0]];outlineConnect=0;fontColor=#232F3E;fillColor=#ED7100;strokeColor=#ffffff;dashed=0;verticalLabelPosition=bottom;verticalAlign=top;align=center;html=1;fontSize=12;fontStyle=0;aspect=fixed;shape=mxgraph.aws4.resourceIcon;resIcon=mxgraph.aws4.ec2;" vertex="1" parent="HZn5qNQIZKqaOpFyqT_2-60">
          <mxGeometry x="85" y="426" width="78" height="78" as="geometry" />
        </mxCell>
        <mxCell id="HZn5qNQIZKqaOpFyqT_2-77" value="prd-es-cluster-common-log2-5" style="sketch=0;points=[[0,0,0],[0.25,0,0],[0.5,0,0],[0.75,0,0],[1,0,0],[0,1,0],[0.25,1,0],[0.5,1,0],[0.75,1,0],[1,1,0],[0,0.25,0],[0,0.5,0],[0,0.75,0],[1,0.25,0],[1,0.5,0],[1,0.75,0]];outlineConnect=0;fontColor=#232F3E;fillColor=#ED7100;strokeColor=#ffffff;dashed=0;verticalLabelPosition=bottom;verticalAlign=top;align=center;html=1;fontSize=12;fontStyle=0;aspect=fixed;shape=mxgraph.aws4.resourceIcon;resIcon=mxgraph.aws4.ec2;" vertex="1" parent="HZn5qNQIZKqaOpFyqT_2-60">
          <mxGeometry x="340" y="400" width="78" height="78" as="geometry" />
        </mxCell>
        <mxCell id="HZn5qNQIZKqaOpFyqT_2-78" value="prd-es-cluster-common-log2-6" style="sketch=0;points=[[0,0,0],[0.25,0,0],[0.5,0,0],[0.75,0,0],[1,0,0],[0,1,0],[0.25,1,0],[0.5,1,0],[0.75,1,0],[1,1,0],[0,0.25,0],[0,0.5,0],[0,0.75,0],[1,0.25,0],[1,0.5,0],[1,0.75,0]];outlineConnect=0;fontColor=#232F3E;fillColor=#ED7100;strokeColor=#ffffff;dashed=0;verticalLabelPosition=bottom;verticalAlign=top;align=center;html=1;fontSize=12;fontStyle=0;aspect=fixed;shape=mxgraph.aws4.resourceIcon;resIcon=mxgraph.aws4.ec2;" vertex="1" parent="HZn5qNQIZKqaOpFyqT_2-60">
          <mxGeometry x="361" y="422" width="78" height="78" as="geometry" />
        </mxCell>
        <mxCell id="HZn5qNQIZKqaOpFyqT_2-79" value="&lt;div&gt;prd-kafka-cluster-common-biz-1&lt;/div&gt;" style="sketch=0;points=[[0,0,0],[0.25,0,0],[0.5,0,0],[0.75,0,0],[1,0,0],[0,1,0],[0.25,1,0],[0.5,1,0],[0.75,1,0],[1,1,0],[0,0.25,0],[0,0.5,0],[0,0.75,0],[1,0.25,0],[1,0.5,0],[1,0.75,0]];outlineConnect=0;fontColor=#232F3E;fillColor=#ED7100;strokeColor=#ffffff;dashed=0;verticalLabelPosition=bottom;verticalAlign=top;align=center;html=1;fontSize=12;fontStyle=0;aspect=fixed;shape=mxgraph.aws4.resourceIcon;resIcon=mxgraph.aws4.ec2;" vertex="1" parent="HZn5qNQIZKqaOpFyqT_2-60">
          <mxGeometry x="57.5" y="570" width="78" height="78" as="geometry" />
        </mxCell>
        <mxCell id="HZn5qNQIZKqaOpFyqT_2-80" value="&lt;div&gt;prd-kafka-cluster-common-biz-2&lt;/div&gt;" style="sketch=0;points=[[0,0,0],[0.25,0,0],[0.5,0,0],[0.75,0,0],[1,0,0],[0,1,0],[0.25,1,0],[0.5,1,0],[0.75,1,0],[1,1,0],[0,0.25,0],[0,0.5,0],[0,0.75,0],[1,0.25,0],[1,0.5,0],[1,0.75,0]];outlineConnect=0;fontColor=#232F3E;fillColor=#ED7100;strokeColor=#ffffff;dashed=0;verticalLabelPosition=bottom;verticalAlign=top;align=center;html=1;fontSize=12;fontStyle=0;aspect=fixed;shape=mxgraph.aws4.resourceIcon;resIcon=mxgraph.aws4.ec2;" vertex="1" parent="HZn5qNQIZKqaOpFyqT_2-60">
          <mxGeometry x="81" y="600" width="78" height="78" as="geometry" />
        </mxCell>
        <mxCell id="HZn5qNQIZKqaOpFyqT_2-81" value="&lt;div&gt;prd-kafka-cluster-common-biz-3&lt;/div&gt;" style="sketch=0;points=[[0,0,0],[0.25,0,0],[0.5,0,0],[0.75,0,0],[1,0,0],[0,1,0],[0.25,1,0],[0.5,1,0],[0.75,1,0],[1,1,0],[0,0.25,0],[0,0.5,0],[0,0.75,0],[1,0.25,0],[1,0.5,0],[1,0.75,0]];outlineConnect=0;fontColor=#232F3E;fillColor=#ED7100;strokeColor=#ffffff;dashed=0;verticalLabelPosition=bottom;verticalAlign=top;align=center;html=1;fontSize=12;fontStyle=0;aspect=fixed;shape=mxgraph.aws4.resourceIcon;resIcon=mxgraph.aws4.ec2;" vertex="1" parent="HZn5qNQIZKqaOpFyqT_2-60">
          <mxGeometry x="349.25" y="570" width="78" height="78" as="geometry" />
        </mxCell>
        <mxCell id="HZn5qNQIZKqaOpFyqT_2-82" value="&lt;div&gt;prd-kafka-cluster-common-biz-4&lt;/div&gt;" style="sketch=0;points=[[0,0,0],[0.25,0,0],[0.5,0,0],[0.75,0,0],[1,0,0],[0,1,0],[0.25,1,0],[0.5,1,0],[0.75,1,0],[1,1,0],[0,0.25,0],[0,0.5,0],[0,0.75,0],[1,0.25,0],[1,0.5,0],[1,0.75,0]];outlineConnect=0;fontColor=#232F3E;fillColor=#ED7100;strokeColor=#ffffff;dashed=0;verticalLabelPosition=bottom;verticalAlign=top;align=center;html=1;fontSize=12;fontStyle=0;aspect=fixed;shape=mxgraph.aws4.resourceIcon;resIcon=mxgraph.aws4.ec2;" vertex="1" parent="HZn5qNQIZKqaOpFyqT_2-60">
          <mxGeometry x="372.75" y="600" width="78" height="78" as="geometry" />
        </mxCell>
        <mxCell id="HZn5qNQIZKqaOpFyqT_2-83" value="10.101.0.0/16" style="text;html=1;align=center;verticalAlign=middle;resizable=0;points=[];autosize=1;strokeColor=none;fillColor=none;" vertex="1" parent="HZn5qNQIZKqaOpFyqT_2-55">
          <mxGeometry x="560" width="100" height="30" as="geometry" />
        </mxCell>
        <mxCell id="HZn5qNQIZKqaOpFyqT_2-84" style="edgeStyle=orthogonalEdgeStyle;rounded=0;orthogonalLoop=1;jettySize=auto;html=1;exitX=0.5;exitY=1;exitDx=0;exitDy=0;" edge="1" parent="1" source="HZn5qNQIZKqaOpFyqT_2-55" target="HZn5qNQIZKqaOpFyqT_2-55">
          <mxGeometry relative="1" as="geometry" />
        </mxCell>
        <mxCell id="HZn5qNQIZKqaOpFyqT_2-85" style="edgeStyle=orthogonalEdgeStyle;rounded=0;orthogonalLoop=1;jettySize=auto;html=1;" edge="1" parent="1" source="HZn5qNQIZKqaOpFyqT_2-24" target="HZn5qNQIZKqaOpFyqT_2-59">
          <mxGeometry relative="1" as="geometry">
            <mxPoint x="1000" y="818" as="targetPoint" />
            <Array as="points">
              <mxPoint x="620" y="40" />
              <mxPoint x="620" y="818" />
            </Array>
          </mxGeometry>
        </mxCell>
        <mxCell id="HZn5qNQIZKqaOpFyqT_2-86" style="edgeStyle=orthogonalEdgeStyle;rounded=0;orthogonalLoop=1;jettySize=auto;html=1;entryX=0;entryY=0.5;entryDx=0;entryDy=0;" edge="1" parent="1" source="HZn5qNQIZKqaOpFyqT_2-24" target="HZn5qNQIZKqaOpFyqT_2-57">
          <mxGeometry relative="1" as="geometry">
            <Array as="points">
              <mxPoint x="620" y="40" />
              <mxPoint x="620" y="1018" />
            </Array>
          </mxGeometry>
        </mxCell>
        <mxCell id="HZn5qNQIZKqaOpFyqT_2-87" style="edgeStyle=orthogonalEdgeStyle;rounded=0;orthogonalLoop=1;jettySize=auto;html=1;entryX=0.001;entryY=0.621;entryDx=0;entryDy=0;entryPerimeter=0;" edge="1" parent="1" source="HZn5qNQIZKqaOpFyqT_2-24" target="HZn5qNQIZKqaOpFyqT_2-56">
          <mxGeometry relative="1" as="geometry">
            <Array as="points">
              <mxPoint x="620" y="40" />
              <mxPoint x="620" y="1219" />
            </Array>
          </mxGeometry>
        </mxCell>
        <mxCell id="HZn5qNQIZKqaOpFyqT_2-88" style="edgeStyle=orthogonalEdgeStyle;rounded=0;orthogonalLoop=1;jettySize=auto;html=1;entryX=0.001;entryY=0.613;entryDx=0;entryDy=0;entryPerimeter=0;" edge="1" parent="1" source="HZn5qNQIZKqaOpFyqT_2-23" target="HZn5qNQIZKqaOpFyqT_2-59">
          <mxGeometry relative="1" as="geometry">
            <Array as="points">
              <mxPoint x="760" y="163" />
              <mxPoint x="760" y="865" />
            </Array>
          </mxGeometry>
        </mxCell>
        <mxCell id="HZn5qNQIZKqaOpFyqT_2-89" style="edgeStyle=orthogonalEdgeStyle;rounded=0;orthogonalLoop=1;jettySize=auto;html=1;entryX=0.001;entryY=0.854;entryDx=0;entryDy=0;entryPerimeter=0;" edge="1" parent="1" source="HZn5qNQIZKqaOpFyqT_2-23" target="HZn5qNQIZKqaOpFyqT_2-56">
          <mxGeometry relative="1" as="geometry">
            <Array as="points">
              <mxPoint x="760" y="163" />
              <mxPoint x="760" y="1257" />
            </Array>
          </mxGeometry>
        </mxCell>
        <mxCell id="HZn5qNQIZKqaOpFyqT_2-90" style="edgeStyle=orthogonalEdgeStyle;rounded=0;orthogonalLoop=1;jettySize=auto;html=1;entryX=0;entryY=0.25;entryDx=0;entryDy=0;exitX=0.5;exitY=1;exitDx=0;exitDy=0;" edge="1" parent="1" source="HZn5qNQIZKqaOpFyqT_2-8" target="HZn5qNQIZKqaOpFyqT_2-59">
          <mxGeometry relative="1" as="geometry">
            <Array as="points">
              <mxPoint x="480" y="-580" />
              <mxPoint x="480" y="803" />
            </Array>
          </mxGeometry>
        </mxCell>
        <mxCell id="HZn5qNQIZKqaOpFyqT_2-91" style="edgeStyle=orthogonalEdgeStyle;rounded=0;orthogonalLoop=1;jettySize=auto;html=1;entryX=0;entryY=0.5;entryDx=0;entryDy=0;" edge="1" parent="1" source="HZn5qNQIZKqaOpFyqT_2-8" target="HZn5qNQIZKqaOpFyqT_2-58">
          <mxGeometry relative="1" as="geometry">
            <Array as="points">
              <mxPoint x="480" y="685" />
            </Array>
          </mxGeometry>
        </mxCell>
        <mxCell id="HZn5qNQIZKqaOpFyqT_2-92" style="edgeStyle=orthogonalEdgeStyle;rounded=0;orthogonalLoop=1;jettySize=auto;html=1;entryX=0;entryY=0.5;entryDx=0;entryDy=0;" edge="1" parent="1" source="HZn5qNQIZKqaOpFyqT_2-8" target="HZn5qNQIZKqaOpFyqT_2-56">
          <mxGeometry relative="1" as="geometry">
            <Array as="points">
              <mxPoint x="480" y="1200" />
            </Array>
          </mxGeometry>
        </mxCell>
      </root>
    </mxGraphModel>
  </diagram>
</mxfile>
